<svg viewBox="0 0 32 32" xmlns="http://www.w3.org/2000/svg">
  <title>EduHive favicon</title>

  <!-- Open Book at bottom -->
  <g>
    <!-- Left page -->
    <path d="M 6.4 22.4 Q 16 20.8 16 22.4 L 16 27.2 Q 16 28 15.2 28 L 7.2 28 Q 6.4 28 6.4 27.2 Z" fill="#1D4ED8" opacity="0.9"/>
    <!-- Right page -->
    <path d="M 16 22.4 Q 25.6 20.8 25.6 22.4 L 25.6 27.2 Q 25.6 28 24.8 28 L 16.8 28 Q 16 28 16 27.2 Z" fill="#1D4ED8" opacity="0.9"/>
    <!-- Book spine/binding -->
    <rect x="15.68" y="22.4" width="0.64" height="5.6" fill="#1D4ED8"/>
  </g>

  <!-- Center Circle -->
  <circle cx="16" cy="16" r="1.28" fill="#1D4ED8"/>

  <!-- Top Leaf -->
  <path d="M 16 9.6 Q 14.4 7.2 16 4.8 Q 17.6 7.2 16 9.6" fill="#1D4ED8"/>

  <!-- Left Leaf -->
  <path d="M 9.6 16 Q 7.2 14.4 4.8 16 Q 7.2 17.6 9.6 16" fill="#1D4ED8"/>

  <!-- Right Leaf -->
  <path d="M 22.4 16 Q 24.8 14.4 27.2 16 Q 24.8 17.6 22.4 16" fill="#1D4ED8"/>
</svg>