<svg width="32" height="32" viewBox="0 0 32 32" fill="none" xmlns="http://www.w3.org/2000/svg">
  <!-- Background circle -->
  <circle cx="16" cy="16" r="16" fill="url(#gradient)" />
  
  <!-- Honeycomb hexagons -->
  <g transform="translate(16,8)">
    <!-- Top hexagon (orange) -->
    <polygon points="-3,-5.2 3,-5.2 6,-1.2 3,2.8 -3,2.8 -6,-1.2" fill="#FF8C42" stroke="#333" stroke-width="0.5"/>
    
    <!-- Left hexagon (green) -->
    <g transform="translate(-6,3.5)">
      <polygon points="-3,-2.6 3,-2.6 6,1.4 3,5.4 -3,5.4 -6,1.4" fill="#4CAF50" stroke="#333" stroke-width="0.5"/>
    </g>
    
    <!-- Right hexagon (blue) -->
    <g transform="translate(6,3.5)">
      <polygon points="-3,-2.6 3,-2.6 6,1.4 3,5.4 -3,5.4 -6,1.4" fill="#2196F3" stroke="#333" stroke-width="0.5"/>
    </g>
    
    <!-- Bottom left hexagon (purple) -->
    <g transform="translate(-3,7)">
      <polygon points="-3,-2.6 3,-2.6 6,1.4 3,5.4 -3,5.4 -6,1.4" fill="#9C27B0" stroke="#333" stroke-width="0.5"/>
    </g>
    
    <!-- Bottom right hexagon (yellow) -->
    <g transform="translate(3,7)">
      <polygon points="-3,-2.6 3,-2.6 6,1.4 3,5.4 -3,5.4 -6,1.4" fill="#FFC107" stroke="#333" stroke-width="0.5"/>
    </g>
  </g>
  
  <!-- Bee body -->
  <ellipse cx="16" cy="22" rx="4" ry="6" fill="#FFA000" stroke="#333" stroke-width="0.5"/>
  
  <!-- Bee stripes -->
  <rect x="12" y="19" width="8" height="1.5" fill="#333"/>
  <rect x="12" y="21.5" width="8" height="1.5" fill="#333"/>
  <rect x="12" y="24" width="8" height="1.5" fill="#333"/>
  
  <defs>
    <linearGradient id="gradient" x1="0%" y1="0%" x2="100%" y2="100%">
      <stop offset="0%" style="stop-color:#f0f0f0;stop-opacity:1" />
      <stop offset="100%" style="stop-color:#e0e0e0;stop-opacity:1" />
    </linearGradient>
  </defs>
</svg>