<svg width="64" height="64" viewBox="0 0 64 64" fill="none" xmlns="http://www.w3.org/2000/svg">
  <!-- Background circle -->
  <circle cx="32" cy="32" r="32" fill="url(#gradient)" />
  
  <!-- School building (static) -->
  <rect x="22" y="40" width="20" height="16" fill="white" opacity="0.9"/>
  <polygon points="22,40 32,24 42,40" fill="white" opacity="0.9"/>
  
  <!-- School building details -->
  <rect x="26" y="44" width="4" height="4" fill="#3B82F6"/>
  <rect x="34" y="44" width="4" height="4" fill="#3B82F6"/>
  <rect x="26" y="50" width="4" height="4" fill="#3B82F6"/>
  <rect x="34" y="50" width="4" height="4" fill="#3B82F6"/>
  <rect x="30" y="50" width="4" height="6" fill="#3B82F6"/>
  <rect x="32" y="28" width="1" height="4" fill="#3B82F6"/>
  <circle cx="32" cy="26" r="1" fill="#3B82F6"/>
  
  <!-- Animated connection dots -->
  <g>
    <!-- Green dots rotating clockwise -->
    <circle r="3" fill="#10B981">
      <animateMotion dur="4s" repeatCount="indefinite">
        <path d="M18,24 A14,8 0 1,1 46,28 A14,8 0 1,1 18,24"/>
      </animateMotion>
    </circle>
    
    <circle r="3" fill="#10B981">
      <animateMotion dur="4s" repeatCount="indefinite" begin="2s">
        <path d="M18,24 A14,8 0 1,1 46,28 A14,8 0 1,1 18,24"/>
      </animateMotion>
    </circle>
    
    <!-- Orange dots rotating counter-clockwise -->
    <circle r="3" fill="#F59E0B">
      <animateMotion dur="3s" repeatCount="indefinite">
        <path d="M16,40 A16,2 0 1,0 48,42 A16,2 0 1,0 16,40"/>
      </animateMotion>
    </circle>
    
    <circle r="3" fill="#F59E0B">
      <animateMotion dur="3s" repeatCount="indefinite" begin="1.5s">
        <path d="M16,40 A16,2 0 1,0 48,42 A16,2 0 1,0 16,40"/>
      </animateMotion>
    </circle>
  </g>
  
  <!-- Animated connection lines -->
  <g opacity="0.6">
    <path stroke="#10B981" stroke-width="2" fill="none">
      <animate attributeName="d" dur="4s" repeatCount="indefinite" 
        values="M18,24 Q25,20 32,28; M25,20 Q35,15 46,28; M46,28 Q40,35 32,32; M40,35 Q25,35 18,24; M18,24 Q25,20 32,28"/>
    </path>
    
    <path stroke="#F59E0B" stroke-width="2" fill="none">
      <animate attributeName="d" dur="3s" repeatCount="indefinite" 
        values="M16,40 Q24,36 32,36; M24,36 Q40,38 48,42; M48,42 Q40,38 32,38; M40,38 Q24,38 16,40; M16,40 Q24,36 32,36"/>
    </path>
  </g>
  
  <!-- Gradient definition -->
  <defs>
    <linearGradient id="gradient" x1="0%" y1="0%" x2="100%" y2="100%">
      <stop offset="0%" style="stop-color:#6366F1;stop-opacity:1" />
      <stop offset="100%" style="stop-color:#3B82F6;stop-opacity:1" />
    </linearGradient>
  </defs>
</svg>