<svg width="64" height="64" viewBox="0 0 64 64" fill="none" xmlns="http://www.w3.org/2000/svg">
  <!-- Background circle -->
  <circle cx="32" cy="32" r="32" fill="url(#gradient)" />
  
  <!-- School building -->
  <rect x="22" y="40" width="20" height="16" fill="white" opacity="0.9"/>
  <polygon points="22,40 32,24 42,40" fill="white" opacity="0.9"/>
  
  <!-- School building details -->
  <rect x="26" y="44" width="4" height="4" fill="#3B82F6"/>
  <rect x="34" y="44" width="4" height="4" fill="#3B82F6"/>
  <rect x="26" y="50" width="4" height="4" fill="#3B82F6"/>
  <rect x="34" y="50" width="4" height="4" fill="#3B82F6"/>
  <rect x="30" y="50" width="4" height="6" fill="#3B82F6"/>
  <rect x="32" y="28" width="1" height="4" fill="#3B82F6"/>
  <circle cx="32" cy="26" r="1" fill="#3B82F6"/>
  
  <!-- Connection dots (representing students/collaboration) -->
  <circle cx="18" cy="24" r="3" fill="#10B981"/>
  <circle cx="46" cy="28" r="3" fill="#10B981"/>
  <circle cx="16" cy="40" r="3" fill="#F59E0B"/>
  <circle cx="48" cy="42" r="3" fill="#F59E0B"/>
  
  <!-- Connection lines -->
  <path d="M21 24 Q28 20, 32 28" stroke="#10B981" stroke-width="2" fill="none" opacity="0.6"/>
  <path d="M43 28 Q38 32, 32 32" stroke="#10B981" stroke-width="2" fill="none" opacity="0.6"/>
  <path d="M19 40 Q26 36, 32 36" stroke="#F59E0B" stroke-width="2" fill="none" opacity="0.6"/>
  <path d="M45 42 Q38 38, 32 38" stroke="#F59E0B" stroke-width="2" fill="none" opacity="0.6"/>
  
  <!-- Gradient definition -->
  <defs>
    <linearGradient id="gradient" x1="0%" y1="0%" x2="100%" y2="100%">
      <stop offset="0%" style="stop-color:#6366F1;stop-opacity:1" />
      <stop offset="100%" style="stop-color:#3B82F6;stop-opacity:1" />
    </linearGradient>
  </defs>
</svg>